# xmcd CD database file
#
# Track frame offsets:
#	150
#	14965
#	30596
#	50988
#	61103
#	74666
#	87344
#	104221
#
# Disc length: 1412 seconds
#
# Revision: 0
# Processed by: cddbd v1.5.2PL0 Copyright (c) Steve Scherf et al.
# Submitted via: CDex 1.70beta2
#
DISCID=7b058208
DTITLE=Kentucky - Here We Are
DYEAR=1900
DGENRE=Country
TTITLE0=Roll Eighteen Wheeler
TTITLE1=Fishing in The Dark
TTITLE2=Family Tradition
TTITLE3=It's So Easy
TTITLE4=Battle Of New Orleans
TTITLE5=Hilly Billy
TTITLE6=Achy Breaky Heart
TTITLE7=Country kurz
EXTD=
EXTT0=
EXTT1=
EXTT2=
EXTT3=
EXTT4=
EXTT5=
EXTT6=
EXTT7=
PLAYORDER=
